<?xml version="1.0" encoding="UTF-8" standalone="no"?>
<!DOCTYPE svg PUBLIC "-//W3C//DTD SVG 1.1//EN" "http://www.w3.org/Graphics/SVG/1.1/DTD/svg11.dtd">
<svg width="100%" height="100%" viewBox="0 0 26 26" version="1.1" xmlns="http://www.w3.org/2000/svg" xmlns:xlink="http://www.w3.org/1999/xlink" xml:space="preserve" xmlns:serif="http://www.serif.com/" style="fill-rule:evenodd;clip-rule:evenodd;stroke-linejoin:round;stroke-miterlimit:2;">
    <path d="M26,13C26,5.82 20.18,0 13,0C5.82,0 0,5.82 0,13C0,20.18 5.82,26 13,26C20.18,26 26,20.18 26,13Z" style="fill:rgb(249,249,249);fill-rule:nonzero;"/>
    <path d="M14.43,14.968C15.791,14.406 16.75,13.065 16.75,11.5C16.75,9.429 15.071,7.75 13,7.75C10.929,7.75 9.25,9.429 9.25,11.5C9.25,13.065 10.208,14.406 11.57,14.968C10.175,15.2 8.892,15.766 7.808,16.581L9.19,18.419C10.251,17.622 11.569,17.15 13,17.15C14.431,17.15 15.748,17.622 16.81,18.419L18.191,16.581C17.107,15.766 15.824,15.2 14.43,14.968Z"/>
</svg>
